<?xml version="1.0" encoding="UTF-8" standalone="no"?>
<svg
   xmlns:dc="http://purl.org/dc/elements/1.1/"
   xmlns:cc="http://creativecommons.org/ns#"
   xmlns:rdf="http://www.w3.org/1999/02/22-rdf-syntax-ns#"
   xmlns:svg="http://www.w3.org/2000/svg"
   xmlns="http://www.w3.org/2000/svg"
   viewBox="0 0 520.91998 61.026669"
   height="61.026669"
   width="520.91998"
   xml:space="preserve"
   id="svg2"
   version="1.1"><metadata
     id="metadata8"><rdf:RDF><cc:Work
         rdf:about=""><dc:format>image/svg+xml</dc:format><dc:type
           rdf:resource="http://purl.org/dc/dcmitype/StillImage" /></cc:Work></rdf:RDF></metadata><defs
     id="defs6" /><g
     transform="matrix(1.3333333,0,0,-1.3333333,0,61.026667)"
     id="g10"><g
       transform="scale(0.1)"
       id="g12"><path
         id="path14"
         style="fill:#231f20;fill-opacity:1;fill-rule:nonzero;stroke:none"
         d="M 3906.91,0.136719 V 380.637 c 0,0 1.24,77.113 -64.23,77.113 h -219.89 -16.08 -240.88 c -65.48,0 -64.24,-77.113 -64.24,-77.113 V 0.136719 h 142.07 V 102.133 h 157.63 30.15 133.4 V 0.136719 Z M 3764.84,221.273 h -321.18 v 97.598 c 0,20.992 19.78,24.684 19.78,24.684 h 143.27 16.08 122.3 c 0,0 19.75,-3.692 19.75,-24.684 v -97.598" /><path
         id="path16"
         style="fill:#231f20;fill-opacity:1;fill-rule:nonzero;stroke:none"
         d="m 3233.53,337.621 c 0,89.793 -54.36,120.129 -166.26,120.129 H 2663.26 V 0 h 446.98 c 80.32,0 139.73,20.8594 139.73,121.391 0,68.906 -22.75,101.804 -84.09,109.39 v 1.871 c 39.24,11.391 67.65,26.578 67.65,104.969 m -131.34,-22.039 c 0,-25.93 -15.14,-43.066 -41.08,-43.066 h -268.46 v 85.218 h 268.46 c 25.94,0 41.08,-19.48 41.08,-46.039 m 12.66,-162.89 c 0,-26.539 -15.77,-41.875 -50.56,-41.875 h -271.64 v 84.515 h 271.64 c 34.79,0 50.56,-16.957 50.56,-47.933" /><path
         id="path18"
         style="fill:#231f20;fill-opacity:1;fill-rule:nonzero;stroke:none"
         d="m 2602.12,292.719 v 29.105 c 0,82.18 -29.09,135.926 -137.23,135.926 H 2032.65 V 0 h 140.36 v 118.848 h 229.32 c 43.63,0 57.53,-15.789 57.53,-63.8441 V 0 h 140.38 v 77.7773 c 0,75.2187 -34.8,93.5507 -76.5,101.1487 v 1.254 c 64.47,15.168 78.38,51.207 78.38,112.539 m -136.59,-12 c 0,-32.864 -13.87,-48.047 -51.82,-48.047 h -240.7 v 111.273 h 228.06 c 44.23,0 64.46,-7.586 64.46,-48.047 v -15.179" /><path
         id="path20"
         style="fill:#231f20;fill-opacity:1;fill-rule:nonzero;stroke:none"
         d="M 1965.8,457.75 V 356.059 H 1596.58 V 274.238 H 1943.7 V 188.02 H 1596.58 V 99.5625 H 1965.8 V 0.0703125 H 1463.9 V 457.75 h 501.9" /><path
         id="path22"
         style="fill:#231f20;fill-opacity:1;fill-rule:nonzero;stroke:none"
         d="M 1400.72,457.75 V 353.809 l -351.56,-247.61 h 351.56 V 0.0703125 H 847.957 V 106.199 l 344.923,247.61 H 856.801 V 457.75 h 543.919" /><path
         id="path24"
         style="fill:#231f20;fill-opacity:1;fill-rule:nonzero;stroke:none"
         d="M 638.465,0 H 778.82 V 457.75 H 638.465 V 0" /><path
         id="path26"
         style="fill:#231f20;fill-opacity:1;fill-rule:nonzero;stroke:none"
         d="m 570.254,337.613 c 0,89.789 -54.356,120.125 -166.258,120.125 H 0 V 0 h 446.961 c 80.32,0 139.734,20.8594 139.734,121.387 0,68.906 -22.746,101.801 -84.09,109.39 v 1.871 c 39.239,11.391 67.649,26.575 67.649,104.965 m -131.34,-22.039 c 0,-25.926 -15.133,-43.062 -41.078,-43.062 H 129.383 v 85.215 h 268.453 c 25.945,0 41.078,-19.485 41.078,-46.036 m 12.66,-162.89 c 0,-26.539 -15.773,-41.875 -50.554,-41.875 H 129.383 v 84.515 H 401.02 c 34.781,0 50.554,-16.957 50.554,-47.933" /></g></g></svg>